<mxfile host="app.diagrams.net" agent="Mozilla/5.0 (X11; Linux x86_64; rv:140.0) Gecko/20100101 Firefox/140.0" version="28.2.6">
  <diagram name="Page-1" id="DVqFEBGvdlSWOoW_4eyi">
    <mxGraphModel dx="866" dy="448" grid="1" gridSize="10" guides="1" tooltips="1" connect="1" arrows="1" fold="1" page="1" pageScale="1" pageWidth="850" pageHeight="1100" math="0" shadow="0">
      <root>
        <mxCell id="0" />
        <mxCell id="1" parent="0" />
        <mxCell id="4GB5M9LPJxhEDxN0F91u-1" value="RyanNaylor@Voleur.htb" style="ellipse;whiteSpace=wrap;html=1;fillColor=#60a917;fontColor=#ffffff;strokeColor=#2D7600;" vertex="1" parent="1">
          <mxGeometry x="90" y="260" width="150" height="90" as="geometry" />
        </mxCell>
        <mxCell id="4GB5M9LPJxhEDxN0F91u-2" value="Domain Users@Voleur.htb" style="ellipse;whiteSpace=wrap;html=1;fillColor=#0050ef;fontColor=#ffffff;strokeColor=#001DBC;" vertex="1" parent="1">
          <mxGeometry x="520" y="50" width="240" height="80" as="geometry" />
        </mxCell>
        <mxCell id="4GB5M9LPJxhEDxN0F91u-3" value="First-Line Technicians@Voleur.htb" style="ellipse;whiteSpace=wrap;html=1;fillColor=#a20025;fontColor=#ffffff;strokeColor=#6F0000;" vertex="1" parent="1">
          <mxGeometry x="530" y="290" width="260" height="80" as="geometry" />
        </mxCell>
        <mxCell id="4GB5M9LPJxhEDxN0F91u-4" value="" style="shape=flexArrow;endArrow=classic;startArrow=classic;html=1;rounded=0;" edge="1" parent="1" source="4GB5M9LPJxhEDxN0F91u-1" target="4GB5M9LPJxhEDxN0F91u-2">
          <mxGeometry width="100" height="100" relative="1" as="geometry">
            <mxPoint x="380" y="260" as="sourcePoint" />
            <mxPoint x="480" y="160" as="targetPoint" />
          </mxGeometry>
        </mxCell>
        <mxCell id="4GB5M9LPJxhEDxN0F91u-6" value="MemberOf" style="edgeLabel;html=1;align=center;verticalAlign=middle;resizable=0;points=[];" vertex="1" connectable="0" parent="4GB5M9LPJxhEDxN0F91u-4">
          <mxGeometry x="-0.0891" y="-1" relative="1" as="geometry">
            <mxPoint as="offset" />
          </mxGeometry>
        </mxCell>
        <mxCell id="4GB5M9LPJxhEDxN0F91u-5" value="" style="shape=flexArrow;endArrow=classic;startArrow=classic;html=1;rounded=0;exitX=1;exitY=0.5;exitDx=0;exitDy=0;" edge="1" parent="1" source="4GB5M9LPJxhEDxN0F91u-1" target="4GB5M9LPJxhEDxN0F91u-3">
          <mxGeometry width="100" height="100" relative="1" as="geometry">
            <mxPoint x="380" y="260" as="sourcePoint" />
            <mxPoint x="480" y="160" as="targetPoint" />
          </mxGeometry>
        </mxCell>
        <mxCell id="4GB5M9LPJxhEDxN0F91u-7" value="MemberOf" style="edgeLabel;html=1;align=center;verticalAlign=middle;resizable=0;points=[];" vertex="1" connectable="0" parent="4GB5M9LPJxhEDxN0F91u-5">
          <mxGeometry x="0.1416" y="2" relative="1" as="geometry">
            <mxPoint as="offset" />
          </mxGeometry>
        </mxCell>
      </root>
    </mxGraphModel>
  </diagram>
</mxfile>
